<?xml version="1.0" encoding="utf-8"?>
<!-- Generator: Adobe Illustrator 26.5.0, SVG Export Plug-In . SVG Version: 6.00 Build 0)  -->
<svg version="1.1" id="Ebene_1" xmlns="http://www.w3.org/2000/svg" xmlns:xlink="http://www.w3.org/1999/xlink" x="0px" y="0px"
	 viewBox="0 0 300 119.39712" style="enable-background:new 0 0 300 119.39712;" xml:space="preserve">
<style type="text/css">
	.st0{fill:#0195FF;}
</style>
<g>
	<path class="st0" d="M295.99362,53.689H160.85483V0H0v57.69537h69.78548v57.69537v4.00637h4.00638h222.20175H300v-4.00637V57.69537
		V53.689H295.99362z M118.99919,16.07937c0-0.28822,0.08477-0.52427,0.25562-0.70685
		c0.16954-0.18389,0.39907-0.27518,0.68729-0.27518h20.03578c0.28822,0,0.52428,0.09129,0.70816,0.27518
		c0.18257,0.18258,0.27518,0.41863,0.27518,0.70685v2.90697c0,0.26214-0.09261,0.48515-0.27518,0.66773
		c-0.18388,0.18389-0.41994,0.27518-0.70816,0.27518h-7.22765v21.72597c0,0.26214-0.09259,0.48515-0.27518,0.66773
		c-0.18388,0.18389-0.41994,0.27518-0.70816,0.27518h-3.61382c-0.26214,0-0.48515-0.09129-0.66773-0.27518
		c-0.18388-0.18258-0.27518-0.40559-0.27518-0.66773V19.92924h-7.26807c-0.26213,0-0.48515-0.09129-0.66772-0.27518
		c-0.18389-0.18258-0.27518-0.40559-0.27518-0.66773V16.07937z M84.23034,41.30178L93.0308,28.5719l-8.25141-12.17822
		c-0.07825-0.13042-0.11737-0.28822-0.11737-0.47211c0-0.23475,0.07825-0.43168,0.23605-0.58948
		c0.15649-0.1565,0.35342-0.23475,0.58948-0.23475h4.00637c0.47211,0,0.8777,0.24909,1.21809,0.74598l5.77612,8.48616
		l5.81393-8.48616c0.34039-0.49688,0.74598-0.74598,1.21809-0.74598h3.81075c0.23605,0,0.43168,0.07825,0.58948,0.23475
		c0.1565,0.1578,0.23605,0.35473,0.23605,0.58948c0,0.18389-0.05347,0.34169-0.1578,0.47211L99.78764,28.5719l8.80045,12.72989
		c0.10433,0.20997,0.1565,0.36647,0.1565,0.4708c0,0.23605-0.08477,0.43298-0.25431,0.58948
		c-0.17085,0.1578-0.36125,0.23605-0.56992,0.23605h-4.16417c-0.49819,0-0.89074-0.23605-1.17896-0.70686l-6.28604-8.87871
		l-6.16866,8.87871c-0.34039,0.4708-0.74598,0.70686-1.21809,0.70686h-3.96725c-0.23605,0-0.43298-0.07825-0.58948-0.23605
		c-0.15781-0.1565-0.23605-0.35343-0.23605-0.58948C84.11166,41.61609,84.15079,41.45828,84.23034,41.30178z M41.85564,18.98634
		c0,0.26214-0.0926,0.48515-0.27518,0.66773c-0.18389,0.18389-0.41994,0.27518-0.70816,0.27518h-7.22764v21.72597
		c0,0.26214-0.09259,0.48515-0.27518,0.66773c-0.18389,0.18389-0.41994,0.27518-0.70816,0.27518h-3.61382
		c-0.26214,0-0.48515-0.09129-0.66773-0.27518c-0.18389-0.18258-0.27518-0.40559-0.27518-0.66773V19.92924h-7.26807
		c-0.26214,0-0.48515-0.09129-0.66773-0.27518c-0.18389-0.18258-0.27518-0.40559-0.27518-0.66773v-2.90697
		c0-0.28822,0.08477-0.52427,0.25562-0.70685c0.16954-0.18389,0.39907-0.27518,0.68729-0.27518h20.03578
		c0.28822,0,0.52427,0.09129,0.70816,0.27518c0.18258,0.18258,0.27518,0.41863,0.27518,0.70685V18.98634z M54.49815,42.59812
		c-0.26213,0-0.48515-0.09129-0.66773-0.27518c-0.18389-0.18258-0.27518-0.40559-0.27518-0.66773V16.07937
		c0-0.28822,0.08477-0.52427,0.25562-0.70685c0.16954-0.18389,0.39777-0.27518,0.68729-0.27518h17.28661
		c0.28692,0,0.52297,0.09129,0.70686,0.27518c0.18258,0.18258,0.27518,0.41863,0.27518,0.70685v2.59266
		c0,0.28822-0.0926,0.51775-0.27518,0.68729c-0.18388,0.17085-0.41994,0.25562-0.70686,0.25562H58.85925v6.95377H70.9201
		c0.28822,0,0.52296,0.08607,0.70686,0.25562c0.18258,0.17084,0.27518,0.39907,0.27518,0.68729v2.43617
		c0,0.28822-0.0926,0.51775-0.27518,0.68729c-0.18389,0.17085-0.41864,0.25562-0.70686,0.25562H58.85925v7.18982h13.23981
		c0.28692,0,0.52297,0.09129,0.70686,0.27518c0.18259,0.18258,0.27518,0.41864,0.27518,0.70686v2.59266
		c0,0.28822-0.09259,0.51775-0.27518,0.68729c-0.18388,0.17085-0.41994,0.25562-0.70686,0.25562H54.49815z M295.99362,115.39075
		H73.79186V57.69537h87.06297h135.13879V115.39075z"/>
	<path class="st0" d="M115.95822,72.79271H98.90766c-0.28953,0-0.51775,0.09129-0.68729,0.27518
		c-0.17085,0.18259-0.25562,0.41864-0.25562,0.70686v25.57584c0,0.26213,0.09129,0.48515,0.27518,0.66772
		c0.18259,0.18389,0.40559,0.27518,0.66773,0.27518h3.45732c0.28691,0,0.52296-0.08477,0.70686-0.25562
		c0.18258-0.16954,0.27518-0.39907,0.27518-0.68729v-9.74336h11.8248c0.28822,0,0.52427-0.08477,0.70815-0.25562
		c0.18259-0.16954,0.27387-0.39908,0.27387-0.68729v-2.75047c0-0.28692-0.09129-0.52297-0.27387-0.70686
		c-0.18388-0.18259-0.41994-0.27518-0.70815-0.27518h-11.8248v-7.4637h12.61121c0.28822,0,0.52296-0.08477,0.70685-0.25562
		c0.18259-0.17085,0.27518-0.39907,0.27518-0.68729v-2.75047c0-0.28822-0.09259-0.52427-0.27518-0.70686
		C116.48119,72.884,116.24644,72.79271,115.95822,72.79271z"/>
	<path class="st0" d="M142.07919,73.77474c-0.23474-0.65469-0.6938-0.98203-1.37457-0.98203h-4.28287
		c-0.73293,0-1.19199,0.32735-1.37457,0.98203l-9.46819,25.33979l-0.07825,0.35342c0,0.23605,0.08477,0.43298,0.25562,0.58948
		c0.16954,0.15781,0.35864,0.23605,0.56861,0.23605h3.4182c0.55035,0,0.92987-0.24909,1.13983-0.74598l1.84669-4.79408h11.6683
		l1.84668,4.79408c0.05217,0.18259,0.16954,0.35343,0.35342,0.50993c0.18259,0.15781,0.44472,0.23605,0.78511,0.23605h3.4182
		c0.20996,0,0.39255-0.07825,0.55035-0.23605c0.15649-0.15649,0.23605-0.35342,0.23605-0.58948
		c0-0.15649-0.01434-0.27387-0.04044-0.35342L142.07919,73.77474z M134.10428,90.23582l4.43935-12.1391l4.47849,12.1391H134.10428z"
		/>
	<path class="st0" d="M164.09729,100.29349h11.70743c2.95914,0,5.25706-0.74598,6.89508-2.23923
		c1.63672-1.49326,2.45573-3.45732,2.45573-5.89349c0-1.43979-0.3743-2.72308-1.12027-3.84987
		c-0.74599-1.12549-1.66933-1.93798-2.77003-2.43617c0.89075-0.41863,1.66933-1.10593,2.33835-2.06187
		c0.66774-0.95595,1.0016-2.11534,1.0016-3.47688c0-2.33183-0.7538-4.17069-2.2588-5.5205
		c-1.5063-1.3485-3.79118-2.02275-6.85596-2.02275h-11.39313c-0.28952,0-0.51775,0.09129-0.68729,0.27518
		c-0.17084,0.18259-0.25562,0.41864-0.25562,0.70686v25.57584c0,0.26213,0.09129,0.48515,0.27518,0.66772
		C163.61215,100.2022,163.83516,100.29349,164.09729,100.29349z M168.6149,76.91776h6.16867
		c1.36154,0,2.39574,0.30779,3.10258,0.92335c0.70816,0.61556,1.06158,1.48674,1.06158,2.61223
		c0,1.10071-0.35342,1.97841-1.06158,2.63179c-0.70685,0.65599-1.74104,0.98333-3.10258,0.98333h-6.16867V76.91776z
		 M168.6149,88.15308h6.56122c1.36154,0,2.42181,0.37429,3.18214,1.12027c0.75902,0.74598,1.13983,1.70845,1.13983,2.88741
		c0,1.15288-0.38081,2.1023-1.13983,2.84828c-0.76033,0.74728-1.8206,1.12027-3.18214,1.12027h-6.56122V88.15308z"/>
	<path class="st0" d="M198.48402,100.29349h3.57469c0.28822,0,0.51645-0.09129,0.6873-0.27518
		c0.17084-0.18258,0.25562-0.40559,0.25562-0.66772v-9.42906h5.46051l5.06795,9.31168
		c0.18388,0.34039,0.38734,0.60252,0.60904,0.7851c0.22302,0.18389,0.54384,0.27518,0.96248,0.27518h3.576
		c0.20866,0,0.39906-0.07825,0.56992-0.23605c0.16954-0.15649,0.2543-0.35342,0.2543-0.58948
		c0-0.13042-0.03912-0.27387-0.11737-0.43167l-5.73569-10.01855c1.64977-0.57513,2.93958-1.51282,3.86943-2.80915
		c0.92987-1.29633,1.39546-2.90045,1.39546-4.81235c0-2.75047-0.91031-4.87103-2.73091-6.36429s-4.32851-2.23924-7.5237-2.23924
		h-10.17503c-0.28952,0-0.51775,0.09129-0.68729,0.27518c-0.17085,0.18259-0.25562,0.41864-0.25562,0.70686v25.57584
		c0,0.26213,0.09129,0.48515,0.27518,0.66772C197.99887,100.2022,198.22189,100.29349,198.48402,100.29349z M203.00163,77.15382
		h5.54005c1.57152,0,2.75569,0.36647,3.55515,1.0994c0.79814,0.73425,1.19852,1.76844,1.19852,3.1039
		s-0.40038,2.35661-1.19852,3.06477c-0.79945,0.70685-1.98363,1.06028-3.55515,1.06028h-5.54005V77.15382z"/>
	<path class="st0" d="M232.39343,100.29349h3.69208c0.28821,0,0.51775-0.09129,0.68858-0.27518
		c0.16954-0.18258,0.25432-0.40559,0.25432-0.66772V73.73562c0-0.28822-0.08478-0.51775-0.25432-0.68729
		c-0.17084-0.17085-0.40038-0.25562-0.68858-0.25562h-3.69208c-0.26213,0-0.48514,0.08477-0.66772,0.25562
		c-0.18388,0.16954-0.27518,0.39908-0.27518,0.68729v25.61497c0,0.26213,0.09129,0.48515,0.27518,0.66772
		C231.90829,100.2022,232.1313,100.29349,232.39343,100.29349z"/>
	<path class="st0" d="M251.47066,100.29349h3.45732c0.28691,0,0.52296-0.08477,0.70685-0.25562
		c0.18259-0.16954,0.27518-0.39907,0.27518-0.68729V89.17554l9.50732,10.41109c0.36646,0.47079,0.87769,0.70685,1.53238,0.70685
		h4.04681c0.20865,0,0.39905-0.07825,0.5686-0.23605c0.17084-0.15649,0.25562-0.35342,0.25562-0.58948
		c0-0.18258-0.06522-0.35342-0.19562-0.50993l-11.55093-13.00506l10.80365-11.86393c0.10431-0.13041,0.15781-0.28822,0.15781-0.4721
		c0-0.23475-0.08609-0.43168-0.25562-0.58949c-0.17087-0.15649-0.35995-0.23475-0.56992-0.23475h-3.88901
		c-0.68207,0-1.19202,0.23475-1.53238,0.70686L255.91,82.96775v-9.19301c0-0.28822-0.09259-0.52427-0.27518-0.70686
		c-0.18388-0.18388-0.41994-0.27518-0.70685-0.27518h-3.45732c-0.28952,0-0.51775,0.09129-0.68729,0.27518
		c-0.17085,0.18259-0.25562,0.41864-0.25562,0.70686v25.57584c0,0.26213,0.09128,0.48515,0.27518,0.66772
		C250.9855,100.2022,251.20853,100.29349,251.47066,100.29349z"/>
</g>
</svg>
